<?xml version="1.0" standalone="no"?>
<!DOCTYPE svg PUBLIC "-//W3C//DTD SVG 20010904//EN"
 "http://www.w3.org/TR/2001/REC-SVG-20010904/DTD/svg10.dtd">
<svg version="1.0" xmlns="http://www.w3.org/2000/svg"
 width="612.000000pt" height="612.000000pt" viewBox="0 0 612.000000 612.000000"
 preserveAspectRatio="xMidYMid meet">

<g transform="translate(0.000000,612.000000) scale(0.100000,-0.100000)"
fill="#000000" stroke="none">
<path d="M3524 4855 c4 -10 -1 -15 -14 -15 -11 0 -20 4 -20 9 0 5 -13 3 -29
-5 -17 -8 -40 -17 -51 -19 -12 -2 -33 -16 -46 -30 -13 -14 -29 -23 -35 -19 -6
3 -34 6 -61 5 -58 -1 -85 -22 -113 -86 -15 -35 -18 -37 -25 -20 -6 17 -9 14
-19 -21 -10 -36 -18 -88 -20 -121 -1 -6 -7 -18 -13 -25 -16 -16 -37 -71 -48
-123 -11 -52 6 -117 30 -113 9 2 32 -12 50 -30 27 -27 31 -36 19 -43 -12 -8
-12 -10 1 -18 8 -6 11 -13 7 -17 -12 -12 -45 -15 -52 -4 -8 13 -25 13 -25 0 0
-5 7 -10 15 -10 19 0 19 -15 1 -32 -11 -10 -8 -20 16 -60 16 -27 34 -48 39
-48 13 0 11 13 -7 39 -13 18 -14 25 -4 31 6 4 11 11 10 16 -1 5 3 10 9 12 6 2
11 -3 11 -12 0 -9 7 -16 15 -16 8 0 15 -5 15 -11 0 -22 26 -37 46 -26 19 10
19 10 0 -11 -30 -35 -3 -25 50 17 27 21 64 46 82 55 17 9 32 21 32 26 0 6 7
10 16 10 18 0 68 26 99 51 11 9 33 20 49 23 17 4 41 16 56 26 14 10 50 23 79
28 30 6 58 17 63 25 5 9 15 14 24 10 9 -3 32 0 53 7 28 9 56 9 117 1 142 -20
179 -27 194 -36 8 -5 30 -10 49 -12 31 -4 108 -38 121 -54 3 -4 14 -9 26 -13
25 -8 89 -63 89 -77 0 -5 5 -13 10 -17 26 -17 56 -192 33 -192 -14 0 -9 -67 7
-80 12 -10 13 -15 4 -20 -15 -10 -2 -50 17 -50 8 0 12 5 9 10 -3 6 0 10 7 10
20 0 55 -61 57 -99 1 -19 6 -40 11 -46 5 -6 12 -38 16 -71 4 -32 11 -64 15
-70 5 -6 14 -38 20 -70 11 -64 28 -122 41 -140 5 -6 15 -36 24 -65 9 -30 20
-59 24 -64 10 -12 14 -104 10 -227 -1 -47 1 -91 4 -96 3 -6 0 -12 -6 -15 -10
-3 -10 -9 -1 -25 10 -16 10 -22 0 -26 -9 -3 -8 -7 2 -15 22 -15 23 -148 2
-157 -13 -5 -11 -8 9 -14 l25 -7 -27 -11 c-32 -13 -36 -29 -12 -47 15 -10 15
-13 -2 -30 -10 -10 -20 -30 -21 -44 -6 -82 -11 -102 -27 -120 -10 -11 -20 -36
-21 -54 -2 -38 -29 -73 -60 -79 -13 -3 -19 -11 -18 -25 2 -18 -4 -23 -37 -28
-22 -4 -38 -11 -34 -16 12 -20 -17 -7 -41 18 -20 23 -28 26 -43 17 -9 -6 -21
-20 -26 -31 -8 -17 -16 -20 -43 -16 -24 4 -34 1 -39 -11 -5 -14 -9 -13 -26 7
l-19 22 5 -25 c16 -71 17 -76 7 -55 l-9 20 -7 -20 c-4 -11 -9 -26 -11 -32 -4
-16 -24 -17 -24 -2 0 5 -5 7 -11 3 -8 -4 -7 -9 2 -15 11 -7 8 -14 -15 -35 -23
-22 -30 -24 -37 -13 -8 12 -12 11 -23 -4 -8 -10 -18 -17 -22 -16 -22 4 -34 -2
-34 -16 0 -8 -4 -15 -10 -15 -5 0 -10 -7 -10 -15 0 -13 -3 -13 -26 1 -15 10
-29 13 -32 8 -11 -15 -42 -16 -58 -3 -11 9 -18 9 -26 1 -16 -16 -28 -15 -28 3
0 8 -4 15 -10 15 -5 0 -10 -7 -10 -15 0 -20 -16 -19 -24 1 -4 10 -13 13 -26 9
-11 -4 -20 -2 -20 4 0 18 -18 12 -24 -7 -2 -9 -2 0 1 20 6 43 -7 49 -30 15
-14 -19 -16 -20 -16 -4 -1 28 -97 112 -129 114 -15 0 -60 11 -99 24 l-73 23
-77 -23 c-43 -13 -119 -26 -170 -30 -78 -7 -95 -11 -123 -34 -37 -31 -33 -31
-85 -12 -62 22 -132 18 -193 -10 -30 -14 -62 -25 -71 -25 -9 0 -40 -19 -67
-43 -58 -49 -113 -75 -239 -112 -49 -14 -104 -30 -121 -35 -17 -6 -78 -10
-135 -10 -58 0 -130 -4 -160 -10 -30 -5 -103 -14 -164 -21 -60 -6 -129 -13
-153 -16 -35 -4 -50 0 -81 21 -21 15 -55 31 -75 37 -39 11 -46 31 -25 70 12
23 79 283 79 308 0 9 14 36 30 61 26 39 30 54 30 111 0 56 4 72 28 105 15 21
72 111 127 199 54 88 113 179 132 202 49 62 194 201 242 234 62 41 153 66 263
73 54 4 109 11 123 16 14 5 46 12 72 14 124 13 169 18 176 23 4 2 33 7 65 9
74 7 79 14 11 16 -103 3 -162 -1 -172 -11 -18 -18 -29 -13 -22 9 8 25 -16 27
-36 4 -22 -27 -60 -37 -149 -40 -47 -1 -133 -5 -192 -7 -59 -3 -110 -2 -112 2
-5 8 -87 -16 -114 -32 -6 -5 -37 -42 -67 -83 -30 -41 -59 -74 -63 -74 -4 0
-15 -12 -24 -27 -9 -16 -28 -41 -42 -58 -15 -16 -39 -48 -54 -70 -15 -22 -34
-47 -43 -55 -8 -8 -28 -36 -42 -61 -15 -25 -45 -65 -67 -89 -22 -24 -40 -47
-40 -52 0 -5 -22 -36 -49 -71 -27 -34 -67 -90 -89 -125 -22 -34 -51 -72 -64
-83 -12 -11 -16 -17 -8 -13 13 7 13 5 1 -9 -16 -20 -31 -18 -156 25 -101 34
-160 81 -195 153 -25 51 -25 78 0 133 11 25 15 42 8 42 -20 0 -74 -67 -86
-107 -28 -94 -7 -147 100 -254 56 -56 90 -80 154 -110 45 -21 84 -42 87 -46
11 -18 -27 -80 -57 -92 -137 -54 -280 -69 -482 -51 -110 10 -134 16 -134 34 0
15 108 187 168 268 l41 56 -46 4 c-59 4 -77 -9 -147 -115 -30 -45 -86 -122
-125 -172 -39 -49 -77 -103 -85 -120 -13 -27 -41 -118 -66 -213 -4 -19 -15
-41 -23 -50 -25 -28 -96 -158 -119 -219 -17 -46 -22 -78 -21 -150 1 -111 11
-130 112 -226 96 -90 175 -142 273 -178 46 -16 126 -47 178 -69 52 -21 122
-46 155 -55 33 -10 83 -28 111 -41 81 -37 227 -80 404 -120 222 -49 478 -114
705 -179 44 -12 108 -26 142 -30 34 -4 67 -13 74 -21 9 -11 10 -60 5 -189 l-7
-175 1860 0 1861 0 0 885 0 884 -34 6 c-18 4 -50 2 -71 -4 -22 -6 -70 -8 -110
-4 -40 3 -94 1 -123 -6 -60 -12 -81 -6 -101 32 -18 34 -55 52 -110 53 -67 1
-69 2 -76 24 -11 36 -73 117 -130 171 -41 39 -67 75 -97 138 -22 47 -48 101
-57 119 -32 66 -77 94 -190 117 l-34 7 7 -33 c4 -19 9 -95 12 -169 2 -74 6
-156 9 -183 5 -45 2 -53 -66 -165 -39 -64 -84 -135 -99 -157 -41 -61 -107
-185 -125 -234 -8 -24 -39 -74 -68 -110 -30 -36 -63 -82 -74 -101 -26 -44 -70
-164 -79 -212 -5 -30 -14 -42 -45 -60 -140 -82 -294 -215 -355 -308 -26 -39
-30 -41 -63 -35 -96 18 -147 70 -181 184 -29 95 -24 158 24 276 20 50 48 135
62 190 14 55 35 117 46 137 l21 37 -20 53 c-12 29 -33 79 -47 111 -29 64 -24
68 40 40 42 -19 132 -26 150 -12 6 5 45 10 86 13 41 2 85 9 96 15 11 6 30 11
41 11 12 0 21 4 21 9 0 10 38 24 57 22 19 -3 56 36 48 48 -3 7 2 11 15 11 12
0 19 4 16 9 -8 12 28 83 38 74 4 -4 4 0 0 10 -3 10 -1 17 5 17 6 0 17 11 23
25 7 15 17 24 25 21 8 -3 11 -1 8 4 -4 6 1 17 9 26 9 8 16 23 16 32 0 10 9 23
20 30 11 7 20 21 20 32 0 11 4 20 9 20 5 0 25 14 44 31 24 22 38 43 42 69 4
21 15 46 26 56 22 20 54 118 45 140 -4 10 2 14 19 14 14 0 25 5 25 10 0 6 -7
10 -15 10 -8 0 -15 3 -15 6 0 8 23 30 40 37 8 4 -1 5 -20 2 -31 -5 -32 -4 -11
5 23 10 23 11 6 24 -13 9 -15 15 -7 20 17 10 15 61 -2 75 -8 7 -12 20 -9 30 2
10 0 36 -7 57 -16 55 -39 295 -30 314 4 8 15 30 24 48 17 31 16 32 -3 32 -10
0 -21 -6 -24 -12 -3 -8 -7 -6 -12 7 -3 11 -11 28 -15 37 -5 9 -14 47 -20 85
-5 37 -15 87 -21 109 -9 35 -8 46 6 68 10 14 23 26 31 26 7 0 21 15 30 33 8
17 27 42 41 53 20 17 23 25 15 40 -5 11 -15 107 -21 214 -12 191 -13 196 -48
269 -29 62 -36 89 -41 160 -6 107 -28 149 -115 221 -62 51 -368 210 -405 210
-5 0 -23 7 -38 15 -16 8 -38 15 -49 15 -43 0 -124 39 -163 78 -45 45 -117 86
-136 79 -7 -3 -27 2 -45 10 -24 12 -35 13 -44 4 -14 -14 -97 -15 -97 -1 0 6 7
10 16 10 8 0 12 4 9 10 -4 6 -17 4 -35 -5 -37 -19 -54 -19 -93 1 l-32 17 25 9
c24 10 24 10 5 18 -32 14 -48 11 -41 -5z m11 -100 c0 -5 -10 -11 -22 -13 -12
-2 -34 -18 -48 -35 -14 -18 -35 -43 -45 -55 -11 -13 -20 -28 -20 -33 0 -5 -4
-9 -10 -9 -5 0 -10 11 -10 24 0 35 101 139 132 134 13 -2 23 -7 23 -13z m-266
-16 c17 -6 31 -14 31 -17 -1 -17 -48 -49 -70 -48 -14 1 -31 -2 -37 -7 -9 -7
-13 -4 -13 7 0 9 7 19 15 22 8 4 15 12 15 18 0 10 19 36 26 36 0 0 15 -5 33
-11z m691 -19 c0 -5 -4 -10 -10 -10 -5 0 -10 5 -10 10 0 6 5 10 10 10 6 0 10
-4 10 -10z m170 -120 c0 -5 -4 -10 -9 -10 -6 0 -13 5 -16 10 -3 6 1 10 9 10 9
0 16 -4 16 -10z m-780 -34 c0 -8 -5 -18 -10 -21 -6 -4 -10 -14 -8 -23 4 -24
-15 -27 -23 -4 -5 12 -2 28 7 41 17 24 34 28 34 7z m-200 -30 c0 -3 -4 -8 -10
-11 -5 -3 -10 -1 -10 4 0 6 5 11 10 11 6 0 10 -2 10 -4z m1220 -6 c0 -5 -4
-10 -10 -10 -5 0 -10 5 -10 10 0 6 5 10 10 10 6 0 10 -4 10 -10z m-1154 -147
c-4 -4 -11 -1 -16 7 -16 25 -11 35 7 17 9 -9 13 -20 9 -24z m-96 -44 c0 -6 -4
-7 -10 -4 -5 3 -10 11 -10 16 0 6 5 7 10 4 6 -3 10 -11 10 -16z m1700 -2009
c0 -5 -7 -10 -16 -10 -8 0 -12 5 -9 10 3 6 10 10 16 10 5 0 9 -4 9 -10z m284
-46 c7 -26 -2 -74 -13 -74 -10 0 -29 39 -36 76 -6 29 -4 31 19 27 15 -3 27
-14 30 -29z m-1171 -874 c-41 -178 -54 -222 -89 -308 -22 -50 -42 -92 -45 -92
-12 0 -7 95 6 121 8 14 24 68 36 120 36 160 38 166 69 199 17 18 32 31 34 29
2 -2 -3 -33 -11 -69z m-146 -42 c-3 -8 -6 -5 -6 6 -1 11 2 17 5 13 3 -3 4 -12
1 -19z m-1022 -236 c-3 -3 -11 0 -18 7 -9 10 -8 11 6 5 10 -3 15 -9 12 -12z
m1200 -488 c27 -13 58 -24 68 -24 22 0 22 -1 -10 -63 -48 -93 -298 -386 -315
-369 -5 5 2 33 16 65 64 146 123 391 113 469 l-5 39 41 -47 c23 -26 64 -57 92
-70z m210 -374 c27 -7 27 -8 5 -8 -14 0 -36 4 -50 8 -20 6 -21 8 -5 8 11 0 34
-4 50 -8z m-485 -110 c0 -9 -50 -23 -56 -17 -3 2 0 17 6 32 10 27 11 27 30 10
11 -10 20 -21 20 -25z m1607 -26 c-3 -3 -12 -4 -19 -1 -8 3 -5 6 6 6 11 1 17
-2 13 -5z"/>
<path d="M2560 4051 c-24 -7 -25 -10 -25 -93 -1 -91 -13 -121 -78 -190 -14
-15 -23 -29 -20 -31 2 -3 -3 -19 -11 -36 -20 -39 -21 -81 -1 -81 8 0 24 19 36
43 12 23 42 69 66 102 58 77 64 94 68 185 2 41 4 78 5 81 0 3 10 11 23 17 21
10 21 11 -8 10 -16 0 -41 -3 -55 -7z"/>
<path d="M2310 4005 c0 -4 11 -23 25 -41 25 -33 32 -54 17 -54 -4 0 -12 4 -17
9 -6 5 -20 12 -32 16 -18 5 -23 2 -23 -12 -1 -44 -16 -47 -70 -14 l-52 32 20
-29 c12 -16 28 -35 37 -42 22 -18 18 -49 -11 -88 -20 -25 -26 -45 -26 -78 1
-32 -3 -47 -14 -51 -12 -4 -8 -9 14 -20 17 -8 32 -22 35 -32 2 -9 23 -23 46
-31 47 -15 61 -7 61 37 0 13 8 24 20 28 16 5 18 10 10 25 -15 27 -12 88 6 139
8 25 18 73 21 107 5 56 4 64 -13 70 -10 4 -27 14 -36 22 -10 8 -18 11 -18 7z"/>
<path d="M3010 3995 c0 -8 7 -15 16 -15 9 0 28 -6 42 -14 15 -8 35 -17 45 -20
9 -3 17 -10 17 -16 0 -6 -5 -8 -10 -5 -6 4 -17 2 -24 -4 -7 -6 -21 -9 -30 -5
-9 3 -16 1 -16 -5 0 -6 14 -14 30 -17 17 -4 30 -11 30 -16 0 -6 -11 -8 -25 -6
-14 3 -28 1 -31 -3 -3 -5 2 -9 10 -9 21 0 31 -21 15 -31 -8 -5 -26 -9 -41 -9
-25 0 -27 3 -30 47 -2 28 -8 48 -17 51 -10 3 -12 -3 -6 -26 3 -16 2 -33 -3
-36 -5 -3 -6 -23 -3 -43 7 -42 4 -76 -8 -69 -4 3 -13 1 -20 -3 -10 -7 -10 -13
-2 -29 8 -15 8 -28 -1 -47 -10 -22 -16 -25 -41 -19 -27 5 -29 4 -25 -14 4 -13
0 -23 -8 -26 -8 -3 -14 -16 -14 -28 0 -21 -29 -50 -46 -47 -4 0 -10 -4 -14
-11 -13 -21 -58 6 -68 42 -9 35 6 79 51 142 11 15 25 56 32 90 7 33 18 76 23
94 10 30 9 34 -13 44 -12 5 -28 20 -33 32 -8 17 -9 14 -5 -16 8 -55 -89 -225
-155 -273 -26 -19 -62 -57 -81 -85 -31 -46 -38 -50 -63 -45 -34 8 -37 -8 -6
-29 30 -22 50 -20 83 6 19 15 30 18 33 10 2 -6 19 -19 39 -28 36 -18 55 -45
35 -52 -23 -7 -11 -19 46 -44 57 -26 178 -45 167 -27 -4 5 -12 9 -18 9 -7 0
-29 11 -50 25 -26 18 -37 33 -37 50 0 21 5 25 29 25 22 0 38 10 61 38 l32 37
16 -25 c39 -58 61 -72 105 -68 42 3 42 3 51 -39 12 -60 4 -73 -46 -74 -27 -1
-34 -3 -19 -6 28 -6 72 -32 84 -50 25 -40 38 27 16 84 -5 15 -14 90 -20 167
l-9 140 36 81 c96 211 94 205 69 205 -9 0 -18 6 -21 14 -6 15 -54 17 -54 2 0
-4 -8 -5 -17 -1 -36 15 -83 15 -83 0z m54 -340 c-3 -13 -13 -26 -21 -29 -10
-4 -12 -10 -6 -19 6 -6 8 -31 5 -53 -3 -32 -9 -44 -28 -53 -34 -15 -45 -14
-60 7 -21 27 -17 50 14 80 16 16 29 35 29 43 0 9 10 38 23 65 l24 48 13 -32
c7 -18 11 -43 7 -57z m-134 -35 c0 -5 -7 -10 -16 -10 -8 0 -12 5 -9 10 3 6 10
10 16 10 5 0 9 -4 9 -10z"/>
<path d="M4316 3745 c-3 -8 -15 -15 -26 -15 -18 0 -19 -2 -8 -20 18 -29 -3
-39 -55 -28 -52 12 -67 12 -147 -2 -36 -6 -90 -12 -121 -14 -31 -2 -67 -10
-80 -17 -13 -7 -38 -14 -56 -16 -18 -2 -48 -13 -68 -24 -29 -17 -35 -27 -35
-54 0 -18 -7 -38 -15 -45 -12 -10 -16 -8 -23 11 -7 17 -11 19 -17 9 -5 -8 -2
-18 8 -25 10 -7 17 -17 17 -22 0 -6 10 -25 23 -44 13 -20 24 -53 26 -79 4 -63
21 -95 51 -96 14 -1 41 -7 60 -13 52 -16 103 -13 162 9 29 11 63 20 75 20 12
0 25 4 28 10 3 5 24 14 45 20 22 6 40 16 40 23 0 7 12 13 28 14 42 3 135 48
150 73 12 19 11 24 -7 41 -21 20 -57 27 -46 9 3 -5 2 -10 -3 -10 -6 0 -13 7
-16 16 -4 9 -13 14 -21 10 -9 -3 -15 1 -15 11 0 12 -3 13 -14 4 -11 -9 -15 -9
-19 1 -4 10 -6 10 -6 0 -1 -8 -9 -10 -26 -6 -19 5 -24 3 -20 -7 4 -10 -5 -15
-31 -17 -30 -2 -102 -16 -201 -39 -16 -4 -23 1 -28 18 -6 18 -1 28 21 47 37
30 105 61 169 77 47 11 53 11 83 -10 31 -21 89 -24 76 -4 -7 11 -4 11 35 -2
17 -6 31 -15 31 -20 0 -5 6 -9 14 -9 8 0 16 -4 18 -10 2 -5 29 -12 61 -14 43
-4 57 -1 57 9 0 8 7 11 19 8 25 -6 33 18 18 56 -17 45 -40 41 -31 -5 5 -27 4
-35 -5 -30 -6 4 -11 22 -11 39 -1 18 -6 42 -13 53 -21 37 -76 94 -90 94 -8 0
-20 7 -27 15 -7 8 -16 15 -20 15 -4 0 -10 -7 -14 -15z m8 -60 c-4 -8 -11 -12
-16 -9 -6 4 -5 10 3 15 19 12 19 11 13 -6z m-64 -105 c0 -5 -13 -10 -30 -10
-16 0 -30 5 -30 10 0 6 14 10 30 10 17 0 30 -4 30 -10z m-185 -159 c-6 -5 -26
-12 -45 -15 -35 -7 -35 -7 -10 8 27 17 70 22 55 7z m-61 -87 c3 -9 6 -17 6
-18 0 -1 -21 -2 -47 -2 l-46 -1 34 18 c42 23 45 23 53 3z m161 6 c3 -5 1 -10
-4 -10 -6 0 -11 5 -11 10 0 6 2 10 4 10 3 0 8 -4 11 -10z m-295 -7 c0 -5 -4
-15 -10 -23 -11 -18 -25 -7 -17 15 6 15 27 21 27 8z m240 -13 c0 -5 -6 -7 -14
-4 -8 3 -17 1 -21 -5 -8 -13 -35 -15 -35 -2 0 9 21 16 58 20 6 0 12 -3 12 -9z
m-207 -45 c-4 -15 -36 -12 -41 3 -3 9 3 13 19 10 13 -1 23 -7 22 -13z"/>
<path d="M4884 3445 c-16 -24 -16 -28 2 -60 25 -48 39 -39 39 25 0 61 -15 74
-41 35z"/>
<path d="M3275 3414 c-27 -14 -57 -32 -66 -40 -8 -8 -20 -14 -25 -14 -17 -1
-64 -72 -70 -107 -4 -22 0 -55 14 -96 35 -111 35 -107 18 -101 -22 8 -20 2 12
-56 35 -64 57 -75 48 -23 l-6 38 19 -22 c24 -29 34 -28 96 2 28 14 59 25 70
25 11 0 34 9 52 19 19 12 33 16 35 9 2 -5 24 3 51 19 l46 28 2 70 c1 39 1 79
0 90 -2 28 -73 134 -94 141 -9 3 -15 10 -12 15 4 5 -12 9 -34 9 -22 0 -43 5
-46 10 -11 17 -58 10 -110 -16z m119 -176 c-9 -15 -85 -49 -94 -43 -6 3 -19 0
-31 -8 -16 -12 -27 -12 -49 -4 l-29 11 31 28 c37 33 100 48 145 34 17 -6 29
-14 27 -18z m46 -45 c-8 -3 -30 -12 -48 -21 -18 -8 -35 -12 -38 -9 -9 9 49 36
76 36 15 0 19 -3 10 -6z m34 -97 c-10 -8 -21 -12 -24 -10 -5 6 21 24 34 24 6
0 1 -6 -10 -14z"/>
<path d="M4807 3258 c-7 -25 -1 -38 17 -38 14 0 29 38 20 52 -10 16 -32 8 -37
-14z"/>
<path d="M3010 3205 c-8 -10 -17 -12 -24 -6 -7 6 -17 6 -26 1 -12 -8 -11 -10
6 -10 11 0 25 -5 32 -12 13 -13 42 6 42 28 0 18 -14 18 -30 -1z"/>
<path d="M3991 2870 c-1 -52 -15 -60 -82 -53 -73 7 -101 0 -139 -37 -26 -25
-39 -30 -81 -30 -30 0 -63 7 -80 17 -25 15 -31 15 -38 4 -28 -45 73 -125 115
-90 9 7 29 12 45 11 21 -2 38 7 65 33 41 40 107 67 141 59 34 -9 73 20 72 54
0 15 -4 36 -9 47 -7 16 -9 13 -9 -15z"/>
<path d="M3310 2760 c0 -5 5 -10 10 -10 6 0 10 5 10 10 0 6 -4 10 -10 10 -5 0
-10 -4 -10 -10z"/>
<path d="M3911 2681 c-6 -11 -11 -28 -11 -39 0 -16 -17 -32 -35 -32 -6 0 3 58
10 70 3 5 1 10 -4 10 -6 0 -16 -9 -23 -20 -7 -11 -19 -20 -26 -20 -12 0 -11
-15 4 -71 3 -9 17 -19 32 -22 70 -14 128 -30 136 -37 8 -8 -49 -24 -69 -19 -6
1 -23 -4 -40 -11 -16 -7 -51 -13 -77 -12 -27 0 -48 -4 -48 -9 0 -5 -11 -9 -24
-9 -14 0 -28 -4 -31 -10 -8 -13 -45 -13 -45 -1 0 5 9 13 20 16 11 3 20 10 20
15 0 5 12 10 26 12 19 2 29 12 39 38 7 19 16 43 20 53 5 13 2 17 -14 17 -12 0
-20 3 -19 8 2 4 -10 19 -25 34 l-27 27 -26 -27 c-34 -35 -54 -83 -54 -128 0
-30 -4 -37 -29 -47 -16 -6 -34 -20 -40 -31 -17 -35 -23 -84 -12 -91 6 -3 11 0
11 7 0 8 4 6 11 -4 12 -21 76 -21 84 0 6 17 42 15 49 -4 3 -8 10 -13 15 -9 5
3 12 1 16 -5 3 -5 19 -10 36 -10 24 0 29 4 29 25 0 17 -6 25 -17 26 -31 1 16
16 75 24 28 4 52 11 52 15 0 5 10 11 23 15 12 3 41 16 65 27 23 12 45 18 49
14 4 -4 2 -11 -6 -15 -9 -6 -7 -10 8 -14 12 -3 28 1 35 9 8 8 18 14 21 14 14
0 150 73 157 83 5 9 10 9 20 -1 15 -15 45 -16 54 0 4 6 3 8 -3 5 -6 -4 -25 7
-42 25 -30 31 -31 31 -31 9 l0 -24 -20 26 c-12 15 -27 24 -35 20 -10 -3 -15 1
-15 13 0 13 -3 15 -8 7 -8 -13 -51 -2 -99 25 -13 7 -23 10 -23 6 0 -4 -8 1
-19 10 -10 9 -34 18 -52 19 -19 1 -39 6 -46 10 -7 5 -16 0 -22 -12z m19 -75
c0 -16 -27 -29 -42 -20 -5 3 -1 12 9 20 23 17 33 17 33 0z m170 -6 c0 -24 -52
-80 -57 -63 -2 6 3 27 11 47 16 39 46 49 46 16z m-100 0 c0 -5 -8 -10 -17 -10
-15 0 -16 2 -3 10 19 12 20 12 20 0z m-361 -207 c-17 -20 -34 -11 -34 19 -1
25 0 25 22 11 19 -12 21 -18 12 -30z"/>
<path d="M4520 2159 c0 -5 5 -7 10 -4 6 3 10 8 10 11 0 2 -4 4 -10 4 -5 0 -10
-5 -10 -11z"/>
<path d="M3542 2148 c5 -15 28 -23 28 -10 0 5 -7 13 -16 16 -10 4 -14 1 -12
-6z"/>
<path d="M3821 1934 c0 -11 3 -14 6 -6 3 7 2 16 -1 19 -3 4 -6 -2 -5 -13z"/>
</g>
</svg>
